<svg width="106" height="60" viewBox="0 0 106 60" fill="none" xmlns="http://www.w3.org/2000/svg">
<path d="M53.7405 28.3533C53.3226 27.7432 53.1226 27.022 53.1701 26.2962V23.3135C53.1701 22.3992 53.3592 21.7044 53.7373 21.2291C54.1155 20.7537 54.7651 20.517 55.686 20.5191C56.5513 20.5191 57.1656 20.7213 57.5288 21.1259C57.925 21.6421 58.1178 22.2733 58.0736 22.91V23.6109H56.5256V22.9009C56.5311 22.6685 56.5161 22.4361 56.4808 22.2061C56.4585 22.0488 56.3806 21.9033 56.2596 21.7934C56.1007 21.675 55.9004 21.6175 55.6988 21.6326C55.4867 21.6176 55.2764 21.6782 55.1091 21.8025C54.9742 21.9243 54.8844 22.0838 54.8527 22.2576C54.8083 22.5011 54.7879 22.7479 54.7918 22.995V26.6147C54.7674 26.964 54.8357 27.3134 54.9905 27.6312C55.0675 27.7387 55.1744 27.824 55.2994 27.8775C55.4244 27.9311 55.5626 27.9508 55.6988 27.9346C55.8971 27.9501 56.0939 27.8912 56.2468 27.7708C56.373 27.6523 56.4541 27.4976 56.4776 27.3308C56.5137 27.0907 56.5298 26.8482 56.5256 26.6056V25.8714H58.0736V26.5419C58.1171 27.2056 57.929 27.8644 57.5384 28.4171C57.1827 28.86 56.5769 29.0815 55.686 29.0815C54.795 29.0815 54.1219 28.8449 53.7405 28.3533Z" fill="#AFB1B8"/>
<path d="M60.1857 28.3837C59.7947 27.9194 59.5992 27.2428 59.5992 26.3477V23.2104C59.5992 22.3244 59.7947 21.6538 60.1857 21.1987C60.5767 20.7436 61.2305 20.517 62.1471 20.5191C63.0573 20.5191 63.7079 20.7456 64.0989 21.1987C64.4899 21.6538 64.6886 22.3244 64.6886 23.2104V26.3477C64.6886 27.2337 64.4899 27.9134 64.0925 28.3806C63.6951 28.8479 63.0477 29.0815 62.1471 29.0815C61.2466 29.0815 60.5799 28.8449 60.1857 28.3837ZM62.8682 27.6312C63.0083 27.3404 63.072 27.0219 63.0541 26.7027V22.8615C63.0721 22.5485 63.0094 22.2361 62.8714 21.9512C62.7929 21.8414 62.6833 21.7547 62.5553 21.7011C62.4272 21.6474 62.2858 21.629 62.1471 21.6478C62.0081 21.6294 61.8664 21.6481 61.7379 21.7017C61.6094 21.7553 61.4992 21.8417 61.4196 21.9512C61.2787 22.2353 61.2148 22.5481 61.2337 22.8615V26.7209C61.2143 27.0402 61.2781 27.3591 61.4196 27.6494C61.5099 27.7473 61.6212 27.8257 61.7461 27.8795C61.8711 27.9332 62.0067 27.961 62.1439 27.961C62.2812 27.961 62.4168 27.9332 62.5417 27.8795C62.6666 27.8257 62.778 27.7473 62.8682 27.6494V27.6312Z" fill="#AFB1B8"/>
<path d="M66.5505 20.6106H68.2171L69.4702 26.3992L70.7522 20.6106H72.3739L72.5374 28.9658H71.3387L71.2105 23.159L69.9734 28.9658H69.0119L67.7299 23.1378L67.6114 28.9658H66.3999L66.5505 20.6106Z" fill="#AFB1B8"/>
<path d="M74.4059 20.6106H77.0018C78.4974 20.6106 79.2452 21.4014 79.2452 22.9831C79.2452 24.498 78.4579 25.2544 76.8832 25.2524H75.9987V28.9658H74.3962L74.4059 20.6106ZM76.6236 24.1814C76.782 24.2005 76.9428 24.1867 77.0949 24.1411C77.2471 24.0956 77.387 24.0193 77.505 23.9175C77.6887 23.6353 77.7698 23.3039 77.7357 22.974C77.7441 22.7191 77.7183 22.4642 77.6588 22.2155C77.636 22.1324 77.5959 22.0545 77.5408 21.9863C77.4858 21.918 77.417 21.8608 77.3383 21.8181C77.1159 21.7171 76.87 21.6711 76.6236 21.6846H76.0019V24.1814H76.6236Z" fill="#AFB1B8"/>
<path d="M81.5561 20.6106H83.2771L85.043 28.9658H83.5495L83.2002 27.0393H81.665L81.3061 28.9658H79.7902L81.5561 20.6106ZM83.0271 26.0715L82.4278 22.5644L81.8285 26.0715H83.0271Z" fill="#AFB1B8"/>
<path d="M86.4691 20.6106H87.5909L89.7382 25.3768V20.6106H91.0682V28.9658H90.001L87.8409 23.9903V28.9658H86.4659L86.4691 20.6106Z" fill="#AFB1B8"/>
<path d="M94.1834 25.7801L92.3983 20.6223H93.9014L94.9911 23.9354L96.0134 20.6223H97.4845L95.7218 25.7801V28.9658H94.1834V25.7801Z" fill="#AFB1B8"/>
<path d="M56.2148 32.6189V33.0558H54.9072V36.4509H54.3592V33.0558H53.0452V32.6189H56.2148Z" fill="#AFB1B8"/>
<path d="M60.3138 36.4512H59.8908C59.8478 36.4537 59.8054 36.4407 59.7722 36.4148C59.7402 36.3925 59.7157 36.362 59.7017 36.3268L59.3235 35.4166H57.5095L57.1313 36.3268C57.1206 36.3649 57.1008 36.4001 57.0736 36.43C57.0401 36.4554 56.9979 36.4683 56.955 36.4664H56.532L58.1345 32.6345H58.6921L60.3138 36.4512ZM57.6601 35.0283H59.1729L58.5319 33.4688C58.4846 33.3509 58.445 33.2303 58.4133 33.1078C58.3909 33.1806 58.3716 33.2504 58.3524 33.3111L58.2947 33.4719L57.6601 35.0283Z" fill="#AFB1B8"/>
<path d="M63.0765 36.0748C63.1769 36.0798 63.2774 36.0798 63.3778 36.0748C63.4644 36.0664 63.5502 36.0512 63.6342 36.0293C63.7127 36.0111 63.7898 35.9878 63.8649 35.9595C63.9354 35.9322 64.0059 35.8988 64.0797 35.8655V35.0037H63.4387C63.4228 35.0046 63.407 35.0023 63.3921 34.9971C63.3772 34.9919 63.3636 34.9838 63.3521 34.9734C63.3416 34.9648 63.3333 34.954 63.3277 34.9419C63.3222 34.9299 63.3196 34.9167 63.3201 34.9036V34.6093H64.5636V36.0779C64.4621 36.1466 64.3549 36.2075 64.2431 36.2599C64.1288 36.3133 64.0098 36.357 63.8874 36.3904C63.7563 36.4269 63.6223 36.4533 63.4867 36.4693C63.3314 36.4856 63.1752 36.4937 63.0188 36.4936C62.7424 36.4958 62.4682 36.4473 62.2112 36.351C61.9712 36.2596 61.7532 36.1234 61.5702 35.9504C61.3918 35.7757 61.2513 35.5695 61.1568 35.3436C61.0557 35.0896 61.0057 34.8199 61.0093 34.5486C61.006 34.2755 61.0548 34.0041 61.1536 33.7475C61.2457 33.5204 61.3865 33.3138 61.567 33.1406C61.7499 32.9682 61.968 32.833 62.208 32.7431C62.4824 32.6454 62.7737 32.597 63.0669 32.6005C63.2161 32.6003 63.3651 32.6115 63.5124 32.6339C63.6426 32.654 63.7704 32.6865 63.8938 32.731C64.0059 32.7709 64.1133 32.8217 64.2143 32.8827C64.3125 32.9426 64.4057 33.0095 64.4931 33.083L64.3393 33.3197C64.3272 33.3413 64.3093 33.3594 64.2873 33.3722C64.2653 33.3851 64.2401 33.392 64.2143 33.3925C64.1788 33.3914 64.1444 33.3809 64.1149 33.3621C64.0668 33.3379 64.0156 33.3075 63.9579 33.2711C63.8897 33.2307 63.8179 33.1961 63.7431 33.1679C63.6476 33.1317 63.549 33.1032 63.4483 33.083C63.314 33.0596 63.1777 33.0484 63.0413 33.0496C62.8298 33.0474 62.6199 33.0834 62.4227 33.1558C62.2444 33.2235 62.0836 33.3271 61.9516 33.4592C61.8188 33.597 61.7173 33.7592 61.6535 33.9356C61.5103 34.3507 61.5103 34.7981 61.6535 35.2131C61.7237 35.3933 61.8328 35.5576 61.974 35.6955C62.1055 35.827 62.265 35.9304 62.4419 35.999C62.6457 36.0652 62.8617 36.091 63.0765 36.0748Z" fill="#AFB1B8"/>
<path d="M68.1851 36.014H69.9351V36.4509H67.6499V32.6189H68.198L68.1851 36.014Z" fill="#AFB1B8"/>
<path d="M71.7555 36.4509H71.2074V32.6189H71.7555V36.4509Z" fill="#AFB1B8"/>
<path d="M73.7938 32.6371C73.8263 32.6547 73.8547 32.6785 73.8771 32.7069L76.2199 35.5955C76.2167 35.5501 76.2167 35.5045 76.2199 35.459C76.2199 35.4165 76.2199 35.374 76.2199 35.3346V32.6038H76.6974V36.4512H76.4218C76.3809 36.4543 76.34 36.447 76.3032 36.43C76.2699 36.4109 76.2406 36.3862 76.2167 36.3571L73.8771 33.4716C73.8771 33.5171 73.8771 33.5595 73.8771 33.602C73.8771 33.6445 73.8771 33.684 73.8771 33.7204V36.4512H73.4188V32.6189H73.7041C73.735 32.619 73.7656 32.6252 73.7938 32.6371Z" fill="#AFB1B8"/>
<path d="M80.7324 32.6189V33.0406H78.7903V34.3059H80.3639V34.7124H78.7903V36.0202H80.7324V36.4419H78.2262V32.6189H80.7324Z" fill="#AFB1B8"/>
<path d="M23.3035 8.95391L47.6385 15.4953V38.4173L23.3035 31.879V8.95391ZM21.7427 7V32.9925L49.196 40.3743V14.3848L21.7427 7Z" fill="#AFB1B8"/>
<path d="M36.4565 52.4402L9 45.0522V19.0625L36.4565 26.4474V52.4402Z" fill="#AFB1B8"/>
<path d="M22.1978 8.65958L46.2155 15.1189L36.0014 24.7912L11.9806 18.3288L22.1978 8.65958ZM21.7427 7L9 19.0631L36.4565 26.4478L49.196 14.3847L21.7427 7Z" fill="#AFB1B8"/>
<path d="M38.0013 50.978L49.196 40.3774L38.0013 37.3647V50.978Z" fill="#AFB1B8"/>
</svg>
