<svg width="106" height="60" viewBox="0 0 106 60" fill="none" xmlns="http://www.w3.org/2000/svg">
<path d="M25.402 21.8306H25.3992C23.1369 21.8306 21.303 23.6177 21.303 25.8223V25.8249C21.303 28.0295 23.1369 29.8167 25.3992 29.8167H25.402C27.6643 29.8167 29.4982 28.0295 29.4982 25.8249V25.8223C29.4982 23.6177 27.6643 21.8306 25.402 21.8306Z" fill="#2196F3"/>
<path d="M55.6368 20.5545C55.6304 17.4924 54.3795 14.5575 52.1579 12.3921C49.9363 10.2266 46.925 9.00695 43.7828 9V9C40.6397 9.00556 37.6269 10.2246 35.4041 12.3902C33.1814 14.5558 31.9298 17.4915 31.9233 20.5545V37.4402C31.9233 37.4402 55.6341 34.8667 55.6368 20.5571V20.5545Z" fill="#2196F3"/>
<path d="M13 42.9823C13.0057 45.1129 13.8766 47.1547 15.4223 48.6615C16.968 50.1683 19.0629 51.0177 21.2492 51.0239C23.4351 51.0177 25.5296 50.1687 27.0752 48.6625C28.6209 47.1562 29.492 45.1151 29.4985 42.9849V31.2356C29.4985 31.2356 13 33.0276 13 42.9823ZM21.2492 45.0874C20.822 45.0874 20.4043 44.964 20.0491 44.7326C19.6938 44.5013 19.417 44.1726 19.2535 43.7879C19.09 43.4032 19.0472 42.98 19.1305 42.5716C19.2139 42.1632 19.4196 41.7881 19.7217 41.4937C20.0239 41.1993 20.4088 40.9988 20.8278 40.9176C21.2468 40.8364 21.6812 40.8781 22.0759 41.0374C22.4706 41.1967 22.808 41.4665 23.0454 41.8127C23.2827 42.1589 23.4094 42.5659 23.4094 42.9823C23.4105 43.2594 23.3554 43.534 23.2473 43.7903C23.1392 44.0466 22.9803 44.2796 22.7796 44.476C22.5789 44.6723 22.3404 44.828 22.0778 44.9343C21.8152 45.0406 21.5336 45.0953 21.2492 45.0953V45.0874Z" fill="#2196F3"/>
<path d="M38.0891 43.7812H36.4016V45.5244H35.5227V41.2588H38.3V41.9707H36.4016V43.0723H38.0891V43.7812ZM42.3137 43.4883C42.3137 43.9082 42.2395 44.2764 42.0911 44.5928C41.9426 44.9092 41.7297 45.1533 41.4524 45.3252C41.177 45.4971 40.8606 45.583 40.5032 45.583C40.1497 45.583 39.8342 45.498 39.5569 45.3281C39.2795 45.1582 39.0647 44.916 38.9124 44.6016C38.76 44.2852 38.6829 43.9219 38.6809 43.5117V43.3008C38.6809 42.8809 38.7561 42.5117 38.9065 42.1934C39.0588 41.873 39.2727 41.6279 39.5481 41.458C39.8254 41.2861 40.1418 41.2002 40.4973 41.2002C40.8528 41.2002 41.1682 41.2861 41.4436 41.458C41.7209 41.6279 41.9348 41.873 42.0852 42.1934C42.2375 42.5117 42.3137 42.8799 42.3137 43.2979V43.4883ZM41.4231 43.2949C41.4231 42.8477 41.343 42.5078 41.1829 42.2754C41.0227 42.043 40.7942 41.9268 40.4973 41.9268C40.2024 41.9268 39.9749 42.042 39.8147 42.2725C39.6545 42.501 39.5735 42.8369 39.5715 43.2803V43.4883C39.5715 43.9238 39.6516 44.2617 39.8118 44.502C39.9719 44.7422 40.2024 44.8623 40.5032 44.8623C40.7981 44.8623 41.0247 44.7471 41.1829 44.5166C41.3411 44.2842 41.4211 43.9463 41.4231 43.5029V43.2949ZM45.1643 44.4053C45.1643 44.2393 45.1057 44.1123 44.9885 44.0244C44.8713 43.9346 44.6604 43.8408 44.3557 43.7432C44.051 43.6436 43.8098 43.5459 43.6321 43.4502C43.1477 43.1885 42.9055 42.8359 42.9055 42.3926C42.9055 42.1621 42.97 41.957 43.0989 41.7773C43.2297 41.5957 43.4163 41.4541 43.6584 41.3525C43.9026 41.251 44.176 41.2002 44.4788 41.2002C44.7834 41.2002 45.0549 41.2559 45.2932 41.3672C45.5315 41.4766 45.7161 41.6318 45.8469 41.833C45.9797 42.0342 46.0461 42.2627 46.0461 42.5186H45.1672C45.1672 42.3232 45.1057 42.1719 44.9827 42.0645C44.8596 41.9551 44.6868 41.9004 44.4641 41.9004C44.2493 41.9004 44.0823 41.9463 43.9631 42.0381C43.844 42.1279 43.7844 42.2471 43.7844 42.3955C43.7844 42.5342 43.8538 42.6504 43.9924 42.7441C44.1331 42.8379 44.3391 42.9258 44.6106 43.0078C45.1106 43.1582 45.4749 43.3447 45.7034 43.5674C45.9319 43.79 46.0461 44.0674 46.0461 44.3994C46.0461 44.7686 45.9065 45.0586 45.6272 45.2695C45.3479 45.4785 44.9719 45.583 44.4993 45.583C44.1711 45.583 43.8723 45.5234 43.6028 45.4043C43.3333 45.2832 43.1272 45.1182 42.9846 44.9092C42.844 44.7002 42.7737 44.458 42.7737 44.1826H43.6555C43.6555 44.6533 43.9368 44.8887 44.4993 44.8887C44.7083 44.8887 44.8713 44.8467 44.9885 44.7627C45.1057 44.6768 45.1643 44.5576 45.1643 44.4053ZM49.8547 41.9707H48.5481V45.5244H47.6692V41.9707H46.3801V41.2588H49.8547V41.9707ZM52.925 43.6758H51.2375V44.8184H53.218V45.5244H50.3586V41.2588H53.2122V41.9707H51.2375V42.9873H52.925V43.6758ZM55.3127 43.9629H54.6125V45.5244H53.7336V41.2588H55.3186C55.8225 41.2588 56.2112 41.3711 56.4846 41.5957C56.7581 41.8203 56.8948 42.1377 56.8948 42.5479C56.8948 42.8389 56.8313 43.082 56.7043 43.2773C56.5793 43.4707 56.3889 43.625 56.1331 43.7402L57.0559 45.4834V45.5244H56.1125L55.3127 43.9629ZM54.6125 43.251H55.3215C55.5422 43.251 55.7131 43.1953 55.8342 43.084C55.9553 42.9707 56.0159 42.8154 56.0159 42.6182C56.0159 42.417 55.9583 42.2588 55.843 42.1436C55.7297 42.0283 55.5549 41.9707 55.3186 41.9707H54.6125V43.251ZM59.9387 44.0215V45.5244H59.0598V41.2588H60.7239C61.0442 41.2588 61.3254 41.3174 61.5676 41.4346C61.8118 41.5518 61.9993 41.7188 62.1301 41.9355C62.261 42.1504 62.3264 42.3955 62.3264 42.6709C62.3264 43.0889 62.1829 43.4189 61.8958 43.6611C61.6106 43.9014 61.2151 44.0215 60.7092 44.0215H59.9387ZM59.9387 43.3096H60.7239C60.9563 43.3096 61.1331 43.2549 61.2542 43.1455C61.3772 43.0361 61.4387 42.8799 61.4387 42.6768C61.4387 42.4678 61.3772 42.2988 61.2542 42.1699C61.1311 42.041 60.9612 41.9746 60.7444 41.9707H59.9387V43.3096ZM65.4993 43.6758H63.8118V44.8184H65.7922V45.5244H62.9329V41.2588H65.7864V41.9707H63.8118V42.9873H65.4993V43.6758ZM69.5774 41.9707H68.2708V45.5244H67.3918V41.9707H66.1028V41.2588H69.5774V41.9707ZM72.6477 43.6758H70.9602V44.8184H72.9407V45.5244H70.0813V41.2588H72.9348V41.9707H70.9602V42.9873H72.6477V43.6758ZM75.0354 43.9629H74.3352V45.5244H73.4563V41.2588H75.0413C75.5452 41.2588 75.9338 41.3711 76.2073 41.5957C76.4807 41.8203 76.6174 42.1377 76.6174 42.5479C76.6174 42.8389 76.554 43.082 76.427 43.2773C76.302 43.4707 76.1116 43.625 75.8557 43.7402L76.7786 45.4834V45.5244H75.8352L75.0354 43.9629ZM74.3352 43.251H75.0442C75.2649 43.251 75.4358 43.1953 75.5569 43.084C75.678 42.9707 75.7385 42.8154 75.7385 42.6182C75.7385 42.417 75.6809 42.2588 75.5657 42.1436C75.4524 42.0283 75.2776 41.9707 75.0413 41.9707H74.3352V43.251ZM79.5002 44.4053C79.5002 44.2393 79.4417 44.1123 79.3245 44.0244C79.2073 43.9346 78.9963 43.8408 78.6917 43.7432C78.387 43.6436 78.1458 43.5459 77.968 43.4502C77.4836 43.1885 77.2415 42.8359 77.2415 42.3926C77.2415 42.1621 77.3059 41.957 77.4348 41.7773C77.5657 41.5957 77.7522 41.4541 77.9944 41.3525C78.2385 41.251 78.512 41.2002 78.8147 41.2002C79.1194 41.2002 79.3909 41.2559 79.6292 41.3672C79.8674 41.4766 80.052 41.6318 80.1829 41.833C80.3157 42.0342 80.3821 42.2627 80.3821 42.5186H79.5032C79.5032 42.3232 79.4417 42.1719 79.3186 42.0645C79.1956 41.9551 79.0227 41.9004 78.8 41.9004C78.5852 41.9004 78.4182 41.9463 78.2991 42.0381C78.1799 42.1279 78.1204 42.2471 78.1204 42.3955C78.1204 42.5342 78.1897 42.6504 78.3284 42.7441C78.469 42.8379 78.675 42.9258 78.9465 43.0078C79.4465 43.1582 79.8108 43.3447 80.0393 43.5674C80.2678 43.79 80.3821 44.0674 80.3821 44.3994C80.3821 44.7686 80.2424 45.0586 79.9631 45.2695C79.6838 45.4785 79.3079 45.583 78.8352 45.583C78.5071 45.583 78.2083 45.5234 77.9387 45.4043C77.6692 45.2832 77.4631 45.1182 77.3206 44.9092C77.1799 44.7002 77.1096 44.458 77.1096 44.1826H77.9915C77.9915 44.6533 78.2727 44.8887 78.8352 44.8887C79.0442 44.8887 79.2073 44.8467 79.3245 44.7627C79.4417 44.6768 79.5002 44.5576 79.5002 44.4053Z" fill="#2196F3"/>
</svg>
