<svg width="106" height="60" viewBox="0 0 106 60" fill="none" xmlns="http://www.w3.org/2000/svg">
<path d="M27.4876 46.2777C27.7175 46.5634 27.84 46.9212 27.8336 47.2884C27.8453 47.5279 27.8032 47.767 27.7104 47.988C27.6176 48.209 27.4765 48.4062 27.2975 48.565C26.851 48.9036 26.2977 49.0692 25.7393 49.0312H23V42.6262H25.6832C26.2129 42.5909 26.7383 42.7413 27.1698 43.0518C27.3431 43.1974 27.4803 43.3815 27.5706 43.5894C27.6609 43.7974 27.7019 44.0236 27.6902 44.2502C27.706 44.6035 27.5954 44.9508 27.3786 45.2295C27.1704 45.484 26.8826 45.6604 26.5621 45.7302C26.9255 45.7968 27.2535 45.9908 27.4876 46.2777ZM24.2746 45.3109H25.4215C25.6821 45.3302 25.941 45.2547 26.1507 45.0981C26.2368 45.0198 26.3038 44.9226 26.3465 44.8141C26.3892 44.7055 26.4064 44.5886 26.3969 44.4723C26.405 44.3565 26.3874 44.2402 26.3453 44.132C26.3033 44.0238 26.2379 43.9263 26.1538 43.8465C25.9378 43.6855 25.6709 43.6088 25.4028 43.6306H24.2746V45.3109ZM26.2629 47.7671C26.3549 47.6869 26.4273 47.5864 26.4743 47.4736C26.5213 47.3607 26.5418 47.2384 26.534 47.1163C26.541 46.9927 26.5197 46.8692 26.4716 46.7553C26.4235 46.6414 26.35 46.5401 26.2567 46.4592C26.0323 46.2922 25.7563 46.2102 25.4776 46.2277H24.2746V47.9893H25.4931C25.7674 48.0052 26.0389 47.9268 26.2629 47.7671Z" fill="#AFB1B8"/>
<path d="M32.9726 49.0312L31.4798 46.5281H30.9189V49.0312H29.6349V42.6263H32.0657C32.6784 42.5833 33.2842 42.7782 33.7579 43.1707C34.0977 43.5183 34.3026 43.9764 34.3358 44.4623C34.3689 44.9482 34.2281 45.4301 33.9387 45.8209C33.6388 46.1659 33.2291 46.3959 32.7794 46.4718L34.3687 49.0312H32.9726ZM30.9189 45.6551H31.9691C32.6983 45.6551 33.0629 45.3318 33.0629 44.6851C33.0704 44.5531 33.0504 44.4209 33.0043 44.297C32.9581 44.1731 32.8868 44.0602 32.7949 43.9655C32.5645 43.773 32.2677 43.6797 31.9691 43.7058H30.9064L30.9189 45.6551Z" fill="#AFB1B8"/>
<path d="M39.9907 47.742H37.4321L36.9802 49.0312H35.6339L37.9837 42.6982H39.4391L41.7795 49.0312H40.4332L39.9907 47.742ZM39.6479 46.7721L38.7129 44.0686L37.778 46.7721H39.6479Z" fill="#AFB1B8"/>
<path d="M48.7759 49.0312H47.5013L44.6436 44.6757V49.0312H43.3721V42.6262H44.6436L47.5013 47.0067V42.6262H48.7759V49.0312Z" fill="#AFB1B8"/>
<path d="M56.0496 47.4981C55.7861 47.9817 55.3845 48.375 54.8965 48.6276C54.3417 48.909 53.7259 49.0477 53.1046 49.0313H50.8358V42.6263H53.1046C53.7249 42.61 54.3398 42.7453 54.8965 43.0206C55.3844 43.2674 55.7864 43.6569 56.0496 44.1376C56.3119 44.6585 56.4486 45.2341 56.4486 45.8178C56.4486 46.4016 56.3119 46.9772 56.0496 47.4981ZM54.5911 47.3448C54.9549 46.9193 55.1549 46.377 55.1549 45.8163C55.1549 45.2555 54.9549 44.7133 54.5911 44.2878C54.1514 43.9024 53.578 43.7067 52.9955 43.7433H52.1104V47.8892H52.9955C53.578 47.9258 54.1514 47.7302 54.5911 47.3448Z" fill="#AFB1B8"/>
<path d="M40.7885 7C40.7885 7 57.24 13.236 56.891 22.2599V37.5229C56.891 37.5229 40.4519 31.2838 40.7947 22.2599L40.7885 7Z" fill="#AFB1B8"/>
<path d="M71.5475 33.9497C74.6545 31.8028 78.2484 30.4731 82 30.0823V25.3044C77.6773 26.9771 74.0102 30.0101 71.5475 33.9497Z" fill="#AFB1B8"/>
<path d="M69.6809 35.389C72.2239 30.2477 76.6326 26.2804 82.0001 24.3031V10.5357C82.0001 10.5357 58.5708 19.4188 59.0663 32.2694V54C59.0663 54 60.1103 53.6026 61.7527 52.8579C61.7527 52.1633 61.7527 51.4624 61.8275 50.7584C62.3124 44.7925 65.1372 39.2642 69.6809 35.389Z" fill="#AFB1B8"/>
<path d="M67.4525 43.4617C67.5756 41.9546 67.8502 40.4639 68.2721 39.0123C65.4429 42.3589 63.7296 46.5117 63.3731 50.8867C63.3388 51.2997 63.3201 51.7127 63.3108 52.1382C64.6415 51.4968 66.1904 50.6958 67.8171 49.754C67.402 47.6841 67.2792 45.5659 67.4525 43.4617Z" fill="#AFB1B8"/>
<path d="M68.3843 43.5399C68.2284 45.4437 68.3258 47.3598 68.6741 49.2377C75.0753 45.3923 82.268 39.4504 81.9906 32.2694V31.6436C77.4172 32.1574 73.1384 34.1647 69.8116 37.3571C69.0327 39.3355 68.5517 41.4193 68.3843 43.5399Z" fill="#AFB1B8"/>
</svg>
