<svg width="106" height="60" viewBox="0 0 106 60" fill="none" xmlns="http://www.w3.org/2000/svg">
<path d="M49.977 5.93452H50.1136C50.3666 5.93452 50.6398 5.95995 50.9105 5.98284C52.1032 6.06695 53.2874 6.24551 54.4521 6.51685V3.65353C53.2528 3.35263 52.0297 3.15778 50.7967 3.0712C50.3287 3.0356 49.8303 3.01271 49.3193 3H48.8918C46.4169 3.00931 43.9527 3.32705 41.5556 3.94596C38.8253 4.62687 36.2047 5.69275 33.7716 7.11189V35.5086C36.1143 34.2357 38.6072 33.2643 41.1913 32.6173C43.2317 32.0967 45.3175 31.7765 47.4195 31.6612H47.503C47.8546 31.6434 48.2062 31.6332 48.568 31.6306V28.7216C45.8367 28.7567 43.1193 29.1178 40.4728 29.7972C39.4938 30.0515 38.5477 30.3261 37.6598 30.6313L36.6479 30.9746V8.83344L37.0805 8.62492C40.3817 7.05951 43.9522 6.14863 47.5966 5.94215C47.6269 5.93994 47.6573 5.93994 47.6876 5.94215C48.0898 5.92181 48.4946 5.91163 48.8918 5.91163H49.3269H49.3471C49.5571 5.91672 49.7671 5.92181 49.977 5.93452Z" fill="#AFB1B8"/>
<path d="M57.1108 8.93257C56.4455 8.93257 55.7877 8.90968 55.1528 8.86137C54.3939 8.80542 53.6147 8.71388 52.876 8.58928C52.4257 8.51299 51.983 8.42145 51.553 8.32227V36.3935C53.3737 36.8443 55.2433 37.0647 57.1184 37.0495C59.5931 37.0395 62.0571 36.7227 64.4546 36.1061C67.1853 35.4243 69.8067 34.3585 72.2411 32.9402V5.04955C69.8986 6.32176 67.4068 7.29395 64.8239 7.94338C62.3031 8.59082 59.7125 8.92306 57.1108 8.93257ZM68.3352 9.41827L69.3471 9.07752V31.2263L68.9145 31.4348C67.2552 32.2242 65.5223 32.8469 63.7412 33.2937C61.5781 33.8533 59.3544 34.1411 57.1209 34.1506C56.4531 34.1506 55.7903 34.1226 55.1477 34.0667L54.4546 34.0057V31.3178V11.2288L55.2616 11.2822C55.8485 11.3204 56.4556 11.3382 57.1158 11.3382C59.9514 11.3281 62.7749 10.9659 65.5221 10.26C66.4657 10.0108 67.4042 9.73104 68.3352 9.41827Z" fill="#AFB1B8"/>
<path d="M35.7371 45.2124C35.5917 45.0615 35.4163 44.943 35.2224 44.8646C35.0284 44.7862 34.8203 44.7496 34.6114 44.7572C34.3888 44.7542 34.1678 44.7957 33.9613 44.8792C33.7719 44.9547 33.5998 45.068 33.4553 45.2124C33.3125 45.3572 33.2013 45.5304 33.129 45.721C33.0497 45.9206 33.0101 46.134 33.0126 46.3491V50.1431C33.0036 50.4104 33.0546 50.6764 33.1619 50.9212C33.2514 51.1156 33.3807 51.2889 33.5413 51.4298C33.693 51.5575 33.871 51.6495 34.0625 51.6993C34.2469 51.7512 34.4376 51.7777 34.6291 51.7782C34.8404 51.7803 35.0495 51.7351 35.2413 51.6459C35.4309 51.563 35.6028 51.4438 35.7473 51.295C35.8881 51.1476 36.0005 50.9752 36.0786 50.7864C36.1597 50.5951 36.201 50.3892 36.2001 50.1812V49.7566H35.2084V50.0948C35.2114 50.2102 35.1916 50.3252 35.1502 50.433C35.1179 50.5137 35.0688 50.5866 35.006 50.6466C34.9446 50.6962 34.8742 50.7333 34.7986 50.7559C34.7316 50.7782 34.6617 50.7902 34.5912 50.7915C34.5026 50.8018 34.413 50.7884 34.3312 50.7527C34.2495 50.717 34.1786 50.6602 34.1257 50.5881C34.0322 50.4356 33.9864 50.2584 33.9942 50.0795V46.5423C33.988 46.3462 34.0297 46.1515 34.1156 45.9752C34.1671 45.8952 34.2399 45.8312 34.3258 45.7908C34.4117 45.7503 34.5071 45.7349 34.6013 45.7464C34.6868 45.7433 34.7717 45.7612 34.8488 45.7984C34.9259 45.8356 34.9929 45.891 35.044 45.96C35.155 46.1057 35.213 46.2851 35.2084 46.4686V46.7966H36.19V46.4101C36.1919 46.1831 36.1507 45.9578 36.0685 45.7464C35.9953 45.5476 35.8825 45.3659 35.7371 45.2124Z" fill="#AFB1B8"/>
<path d="M41.6289 45.1691C41.3127 44.9021 40.9136 44.7546 40.5007 44.7521C40.2987 44.753 40.0984 44.7891 39.9087 44.8589C39.7161 44.9279 39.5384 45.0332 39.3851 45.1691C39.2208 45.3168 39.0897 45.498 39.0005 45.7006C38.9006 45.9324 38.8515 46.183 38.8563 46.4355V50.0744C38.8495 50.3304 38.8987 50.5848 39.0005 50.8195C39.0903 51.0152 39.2215 51.1888 39.3851 51.3281C39.5367 51.4688 39.7147 51.5778 39.9087 51.6485C40.0984 51.7183 40.2987 51.7544 40.5007 51.7553C40.7027 51.7549 40.9031 51.7187 41.0926 51.6485C41.29 51.5768 41.4719 51.468 41.6289 51.3281C41.7871 51.1862 41.9145 51.013 42.0033 50.8195C42.1051 50.5848 42.1544 50.3304 42.1475 50.0744V46.4355C42.1524 46.183 42.1032 45.9324 42.0033 45.7006C41.9151 45.5001 41.7878 45.3194 41.6289 45.1691ZM41.166 50.0744C41.1743 50.1714 41.1609 50.269 41.1268 50.3601C41.0926 50.4512 41.0386 50.5335 40.9687 50.6008C40.8377 50.7107 40.6725 50.7708 40.5019 50.7708C40.3313 50.7708 40.1662 50.7107 40.0352 50.6008C39.9652 50.5335 39.9112 50.4512 39.8771 50.3601C39.8429 50.269 39.8295 50.1714 39.8379 50.0744V46.4355C39.8295 46.3385 39.8429 46.2409 39.8771 46.1498C39.9112 46.0587 39.9652 45.9765 40.0352 45.9091C40.1662 45.7993 40.3313 45.7391 40.5019 45.7391C40.6725 45.7391 40.8377 45.7993 40.9687 45.9091C41.0386 45.9765 41.0926 46.0587 41.1268 46.1498C41.1609 46.2409 41.1743 46.3385 41.166 46.4355V50.0744Z" fill="#AFB1B8"/>
<path d="M49.3673 51.6994V44.8106H48.4136L47.1614 48.4571H47.1437L45.8813 44.8106H44.9377V51.6994H45.9218V47.5086H45.9395L46.9033 50.4711H47.3941L48.3655 47.5086H48.3832V51.6994H49.3673Z" fill="#AFB1B8"/>
<path d="M54.9581 45.2937C54.8065 45.1237 54.6153 44.9944 54.4015 44.9173C54.1712 44.8424 53.9302 44.8063 53.6881 44.8105H52.226V51.6993H53.2075V49.0089H53.7134C54.0197 49.0228 54.3244 48.9581 54.5988 48.8207C54.822 48.6968 55.0081 48.515 55.1377 48.2943C55.2512 48.1111 55.3277 47.9072 55.3628 47.6942C55.4014 47.435 55.4192 47.1731 55.4159 46.911C55.4255 46.5802 55.3932 46.2495 55.3198 45.9269C55.2543 45.6885 55.1299 45.4707 54.9581 45.2937ZM54.4521 47.3941C54.4479 47.5189 54.4168 47.6412 54.361 47.7527C54.3049 47.8586 54.2162 47.9434 54.1081 47.9943C53.9627 48.0593 53.8041 48.0889 53.6451 48.0807H53.1974V45.7387H53.7033C53.8557 45.7312 54.0075 45.7609 54.146 45.8252C54.2475 45.8834 54.3281 45.9724 54.3762 46.0795C54.4299 46.2005 54.4591 46.331 54.4622 46.4634C54.4622 46.6084 54.4622 46.761 54.4622 46.9212C54.4622 47.0814 54.4723 47.2467 54.4622 47.3941H54.4521Z" fill="#AFB1B8"/>
<path d="M59.6077 44.8106H58.8032L57.2854 51.6994H58.2669L58.5553 50.2194H59.8935L60.1819 51.6994H61.1635L59.6077 44.8106ZM58.702 49.281L59.1852 46.7839H59.2029L59.6836 49.281H58.702Z" fill="#AFB1B8"/>
<path d="M65.9497 48.9606H65.932L64.4496 44.8106H63.506V51.6994H64.4875V47.557H64.5078L66.0079 51.6994H66.9312V44.8106H65.9497V48.9606Z" fill="#AFB1B8"/>
<path d="M71.9476 44.8106L71.1583 47.5493H71.1381L70.3488 44.8106H69.3091L70.6574 48.7877V51.6994H71.639V48.7877L72.9873 44.8106H71.9476Z" fill="#AFB1B8"/>
<path d="M33 53.6446H33.4731V54.972H33.7943V53.6446H34.2649V53.3725H33V53.6446Z" fill="#AFB1B8"/>
<path d="M36.9767 53.3725L36.3569 54.972H36.6984L36.83 54.6083H37.4675L37.6041 54.972H37.9532L37.3182 53.3725H36.9767ZM36.9261 54.3388L37.1437 53.7463L37.3612 54.3388H36.9261Z" fill="#AFB1B8"/>
<path d="M40.9079 54.3821H41.2773V54.5881C41.1694 54.6746 41.0358 54.722 40.8978 54.7229C40.8333 54.7265 40.7689 54.7145 40.7099 54.688C40.6509 54.6615 40.5991 54.6211 40.5588 54.5703C40.474 54.4485 40.4322 54.3017 40.4399 54.1533C40.4399 53.7973 40.5942 53.6193 40.9003 53.6193C40.9809 53.6112 41.0617 53.6325 41.128 53.6791C41.1944 53.7258 41.2419 53.7947 41.2621 53.8736L41.5783 53.8125C41.51 53.4998 41.2849 53.3421 40.9003 53.3421C40.6947 53.3366 40.4947 53.4103 40.3413 53.5481C40.2607 53.6276 40.1983 53.7239 40.1586 53.8302C40.1188 53.9365 40.1026 54.0502 40.1111 54.1635C40.1017 54.3823 40.1749 54.5966 40.316 54.7636C40.3943 54.8444 40.4892 54.9071 40.594 54.9475C40.6988 54.9879 40.8111 55.005 40.9231 54.9975C41.1734 55.0045 41.4165 54.9133 41.6011 54.7432V54.1126H40.9079V54.3821Z" fill="#AFB1B8"/>
<path d="M44.9226 53.3725H44.5988V54.972H45.7194V54.6999H44.9226V53.3725Z" fill="#AFB1B8"/>
<path d="M48.3175 53.3725H47.9937V54.972H48.3175V53.3725Z" fill="#AFB1B8"/>
<path d="M51.6365 54.4405L50.9813 53.3725H50.6676V54.972H50.9686V53.9268L51.6112 54.972H51.9325V53.3725H51.6365V54.4405Z" fill="#AFB1B8"/>
<path d="M54.6368 54.2676H55.4337V53.9955H54.6368V53.6446H55.4944V53.3725H54.313V54.972H55.5273V54.6999H54.6368V54.2676Z" fill="#AFB1B8"/>
<path d="M61.9122 54.0031H61.2823V53.3725H60.9611V54.972H61.2823V54.2727H61.9122V54.972H62.2335V53.3725H61.9122V54.0031Z" fill="#AFB1B8"/>
<path d="M64.9302 54.2676H65.7296V53.9955H64.9302V53.6446H65.7903V53.3725H64.6089V54.972H65.8206V54.6999H64.9302V54.2676Z" fill="#AFB1B8"/>
<path d="M69.0233 54.2677C69.3015 54.2244 69.4432 54.0769 69.4432 53.8227C69.4513 53.7546 69.441 53.6857 69.4134 53.623C69.3858 53.5604 69.3419 53.5064 69.2863 53.4667C69.1415 53.3939 68.9799 53.3614 68.8183 53.3726H68.1404V54.9721H68.4617V54.3033H68.5249C68.5934 54.299 68.6619 54.3112 68.7247 54.3389C68.7717 54.3678 68.8108 54.408 68.8386 54.4558L69.1877 54.9644H69.5722L69.3774 54.6516C69.2913 54.4972 69.1699 54.3656 69.0233 54.2677ZM68.6994 54.0464H68.4617V53.6447H68.7146C68.8248 53.6357 68.9357 53.6487 69.041 53.6828C69.0644 53.7035 69.0828 53.7291 69.095 53.7579C69.1072 53.7868 69.1127 53.818 69.1113 53.8492C69.1098 53.8805 69.1014 53.911 69.0866 53.9386C69.0718 53.9661 69.051 53.9899 69.0258 54.0083C68.9202 54.0407 68.8096 54.0536 68.6994 54.0464Z" fill="#AFB1B8"/>
<path d="M72.1096 54.2676H72.9064V53.9955H72.1096V53.6446H72.9697V53.3725H71.7858V54.972H73V54.6999H72.1096V54.2676Z" fill="#AFB1B8"/>
</svg>
