<svg width="106" height="60" viewBox="0 0 106 60" fill="none" xmlns="http://www.w3.org/2000/svg">
<path d="M38.3454 49.7946C38.3604 49.795 38.3752 49.7982 38.3889 49.8041C38.4026 49.81 38.4149 49.8184 38.4251 49.8289L38.6309 50.0446C38.4712 50.2191 38.2738 50.3588 38.0522 50.4539C37.7927 50.5577 37.513 50.6078 37.2317 50.6009C36.9673 50.6061 36.7046 50.5594 36.46 50.4637C36.2394 50.3758 36.0412 50.2437 35.8787 50.0764C35.713 49.9029 35.5853 49.6996 35.5032 49.4784C35.4133 49.2318 35.3689 48.9723 35.372 48.7113C35.3684 48.4486 35.4164 48.1875 35.5135 47.9417C35.6033 47.7191 35.7389 47.5158 35.9122 47.3436C36.0878 47.1749 36.2979 47.0423 36.5295 46.9539C36.7828 46.8604 37.0526 46.8138 37.3243 46.8167C37.5766 46.8108 37.8277 46.8534 38.0625 46.9417C38.2662 47.0259 38.4532 47.1428 38.6155 47.2873L38.4432 47.5177C38.4312 47.5339 38.4164 47.548 38.3994 47.5593C38.3791 47.5726 38.3545 47.5787 38.33 47.5765C38.3033 47.5747 38.2775 47.5663 38.2554 47.552L38.1628 47.4907L38.0342 47.4123C37.9787 47.3832 37.9211 47.3578 37.8619 47.3363C37.7856 47.3103 37.7073 47.2898 37.6278 47.275C37.5268 47.2573 37.4243 47.2491 37.3217 47.2505C37.1261 47.2482 36.9319 47.2832 36.7507 47.3534C36.5817 47.4185 36.4291 47.5171 36.3031 47.6427C36.1749 47.7762 36.076 47.9329 36.0125 48.1034C35.94 48.2985 35.9043 48.5043 35.907 48.7113C35.9039 48.9214 35.9396 49.1305 36.0125 49.3289C36.0752 49.498 36.1723 49.6537 36.298 49.7872C36.4158 49.9117 36.5618 50.0089 36.725 50.0715C36.8929 50.1379 37.0731 50.1712 37.2548 50.1696C37.3598 50.1711 37.4648 50.1646 37.5686 50.15C37.7382 50.1302 37.9009 50.0741 38.0445 49.9858C38.1165 49.9405 38.1844 49.8897 38.2477 49.8338C38.2741 49.8098 38.3089 49.7958 38.3454 49.7946Z" fill="#AFB1B8"/>
<path d="M44.2871 48.7108C44.2903 48.9709 44.2432 49.2292 44.1482 49.473C44.0644 49.6941 43.9323 49.8958 43.7608 50.0648C43.5892 50.2338 43.382 50.3662 43.1528 50.4533C42.6492 50.6363 42.0925 50.6363 41.589 50.4533C41.3613 50.3648 41.1554 50.2321 40.9845 50.0636C40.8131 49.8916 40.68 49.6882 40.5936 49.4657C40.4083 48.972 40.4083 48.4325 40.5936 47.9388C40.6813 47.7162 40.8141 47.5122 40.9845 47.3384C41.1568 47.1752 41.3626 47.0476 41.589 46.9635C42.0919 46.7772 42.6499 46.7772 43.1528 46.9635C43.3813 47.0519 43.588 47.1846 43.7598 47.3531C43.9292 47.5235 44.0612 47.7243 44.1482 47.9437C44.2435 48.1892 44.2906 48.4492 44.2871 48.7108ZM43.747 48.7108C43.751 48.5028 43.718 48.2956 43.6492 48.0981C43.5916 47.929 43.4979 47.7729 43.374 47.6399C43.2534 47.5139 43.1049 47.4152 42.9393 47.3507C42.5734 47.2167 42.1684 47.2167 41.8024 47.3507C41.6368 47.4152 41.4884 47.5139 41.3678 47.6399C41.2422 47.7722 41.1475 47.9284 41.09 48.0981C40.9591 48.4971 40.9591 48.9246 41.09 49.3235C41.148 49.4931 41.2427 49.6492 41.3678 49.7818C41.4885 49.907 41.637 50.0049 41.8024 50.0685C42.169 50.1991 42.5728 50.1991 42.9393 50.0685C43.1048 50.0049 43.2533 49.907 43.374 49.7818C43.4974 49.6484 43.591 49.4925 43.6492 49.3235C43.7183 49.1261 43.7513 48.9189 43.747 48.7108Z" fill="#AFB1B8"/>
<path d="M48.3408 49.3532L48.3948 49.4904C48.4154 49.4414 48.4334 49.3973 48.4539 49.3532C48.4736 49.3071 48.4959 49.2621 48.5208 49.2184L49.8352 46.942C49.8609 46.9028 49.884 46.8783 49.9098 46.8709C49.9447 46.8608 49.9813 46.8566 50.0178 46.8587H50.4062V50.5613H49.9458V47.8388C49.9458 47.8045 49.9458 47.7653 49.9458 47.7237C49.9433 47.6812 49.9433 47.6387 49.9458 47.5962L48.6237 49.9046C48.6069 49.9391 48.58 49.9684 48.5463 49.9888C48.5125 50.0092 48.4733 50.02 48.4334 50.0197H48.3588C48.3187 50.0203 48.2794 50.0097 48.2456 49.9892C48.2118 49.9687 48.185 49.9393 48.1684 49.9046L46.8078 47.5815C46.8078 47.6256 46.8078 47.6698 46.8078 47.7139C46.8078 47.758 46.8078 47.7972 46.8078 47.8315V50.5539H46.3628V46.8587H46.7512C46.7877 46.8566 46.8243 46.8608 46.8592 46.8709C46.8911 46.886 46.9165 46.9111 46.9312 46.942L48.2739 49.2209C48.3003 49.263 48.3227 49.3073 48.3408 49.3532Z" fill="#AFB1B8"/>
<path d="M53.2871 49.1692V50.5562H52.7727V46.8585H53.9199C54.1364 46.8546 54.3524 46.8818 54.5603 46.9394C54.7268 46.9843 54.8812 47.0629 55.013 47.1697C55.1273 47.2699 55.2154 47.394 55.2703 47.5324C55.331 47.6832 55.3607 47.8438 55.3577 48.0053C55.36 48.1675 55.3276 48.3284 55.2625 48.4782C55.2007 48.6201 55.1057 48.7466 54.9847 48.8482C54.8528 48.9595 54.6976 49.043 54.5295 49.0933C54.3292 49.1542 54.1198 49.1832 53.9096 49.179L53.2871 49.1692ZM53.2871 48.7723H53.9096C54.0448 48.7739 54.1794 48.7549 54.3083 48.7159C54.4146 48.6818 54.5126 48.6277 54.5964 48.5566C54.6736 48.4888 54.7335 48.405 54.7713 48.3116C54.8134 48.2128 54.8344 48.107 54.833 48.0004C54.839 47.8976 54.8214 47.7948 54.7814 47.6992C54.7414 47.6035 54.68 47.5174 54.6015 47.4466C54.405 47.3004 54.1582 47.2296 53.9096 47.2481H53.2871V48.7723Z" fill="#AFB1B8"/>
<path d="M60.201 50.5612H59.7946C59.7538 50.5626 59.7138 50.5505 59.6814 50.5268C59.6522 50.5038 59.6293 50.4744 59.6145 50.4411L59.2647 49.5466H57.508L57.1453 50.4411C57.132 50.4738 57.1098 50.5025 57.081 50.5244C57.0483 50.5495 57.0072 50.5625 56.9652 50.5612H56.5588L58.1021 46.8582H58.6371L60.201 50.5612ZM57.6546 49.1863H59.1053L58.4931 47.6791C58.4463 47.5658 58.4076 47.4495 58.3773 47.3311L58.3182 47.5247C58.3002 47.5836 58.2796 47.6375 58.2616 47.6816L57.6546 49.1863Z" fill="#AFB1B8"/>
<path d="M62.4233 46.8754C62.4541 46.8915 62.4805 46.9141 62.5005 46.9416L64.7511 49.7329C64.7511 49.6887 64.7511 49.6446 64.7511 49.603C64.7511 49.5613 64.7511 49.5197 64.7511 49.4804V46.8582H65.2115V50.5612H64.9543C64.9178 50.5622 64.8816 50.5547 64.8489 50.5391C64.8171 50.5215 64.7892 50.4982 64.7666 50.4705L62.5185 47.6817C62.521 47.7241 62.521 47.7666 62.5185 47.8091C62.5185 47.8508 62.5185 47.8875 62.5185 47.9218V50.5612H62.0581V46.8582H62.3308C62.3626 46.8574 62.3942 46.8632 62.4233 46.8754Z" fill="#AFB1B8"/>
<path d="M69.0029 49.0884V50.5588H68.4884V49.0884L67.066 46.8584H67.5265C67.5661 46.8561 67.6053 46.8674 67.6371 46.8902C67.6651 46.914 67.6886 46.9422 67.7065 46.9735L68.5965 48.4121C68.6325 48.4733 68.6634 48.5297 68.6891 48.5836C68.7148 48.6375 68.7354 48.689 68.7534 48.7405L68.8203 48.5812C68.8452 48.5229 68.8744 48.4664 68.9077 48.4121L69.7848 46.9637C69.8033 46.9348 69.8258 46.9084 69.8517 46.8853C69.8822 46.8599 69.9218 46.8467 69.9623 46.8486H70.4279L69.0029 49.0884Z" fill="#AFB1B8"/>
<path d="M48.0862 40.6443C48.31 40.6712 48.5363 40.6933 48.7652 40.7129C52.2358 39.2337 55.1718 36.8127 57.2062 33.7526C59.2406 30.6924 60.2832 27.1289 60.2036 23.5073L56.3788 19.8633C57.1565 23.7191 56.7927 27.705 55.3282 31.3751C53.8636 35.0452 51.3561 38.2546 48.0862 40.6443Z" fill="#AFB1B8"/>
<path d="M46.7205 40.4748L46.8233 40.4944C50.3176 38.1132 52.9816 34.788 54.471 30.9488C55.9604 27.1097 56.2065 22.9331 55.1777 18.9592L49.7299 13.769C51.9333 18.0353 52.8203 22.8098 52.2876 27.5374C51.7548 32.265 49.8243 36.7514 46.7205 40.4748Z" fill="#AFB1B8"/>
<path d="M65.1962 27.7861C64.2706 31.7654 62.0228 35.3541 58.7864 38.0196C57.8412 38.8023 56.8217 39.4996 55.741 40.1025C58.3763 39.3646 60.7986 38.0598 62.821 36.289C64.8434 34.5181 66.4119 32.3284 67.4056 29.8887L65.1962 27.7861Z" fill="#AFB1B8"/>
<path d="M64.3292 27.2002L61.1835 24.2031C61.1233 27.6201 60.1037 30.9594 58.2306 33.8739C56.3575 36.7885 53.6993 39.1718 50.5322 40.7764H50.5477C51.2534 40.7761 51.9586 40.736 52.6594 40.6563C55.6192 39.5053 58.2339 37.6742 60.2702 35.3262C62.3064 32.9782 63.7009 30.1865 64.3292 27.2002Z" fill="#AFB1B8"/>
<path d="M47.1757 11.5803L43.4229 8C40.0681 9.23513 37.1828 11.4064 35.1446 14.2297C33.1065 17.053 32.0105 20.3968 32 23.8234V23.8234C32.0126 27.6097 33.3502 31.2838 35.8012 34.2643C38.2521 37.2448 41.6764 39.3614 45.5321 40.2791C48.974 36.2838 50.9892 31.347 51.2847 26.186C51.5803 21.025 50.1409 15.9086 47.1757 11.5803Z" fill="#AFB1B8"/>
<path d="M73 26.649C72.9864 22.1568 71.1073 17.8522 67.7732 14.6757C64.4391 11.4992 59.921 9.70898 55.2059 9.69605C53.0271 9.6939 50.8668 10.077 48.8347 10.8258L71.8117 32.7166C72.5984 30.7815 73.0014 28.7241 73 26.649Z" fill="#AFB1B8"/>
</svg>
